<svg  viewBox="0 0 785 785" fill="none" xmlns="http://www.w3.org/2000/svg">
<path fill-rule="evenodd" clip-rule="evenodd" d="M285.312 774.985C285.312 780.507 289.789 784.985 295.312 784.985H489.673C495.196 784.985 499.673 780.507 499.673 774.985L499.673 499.673L774.985 499.673C780.507 499.673 784.985 495.196 784.985 489.673V295.312C784.985 289.789 780.507 285.312 774.985 285.312L499.673 285.312V10C499.673 4.47715 495.196 -1.58845e-07 489.673 0L295.312 5.87773e-06C289.789 5.87773e-06 285.312 4.47717 285.312 10V285.312H10C4.47715 285.312 0 289.789 0 295.312L0 489.673C0 495.196 4.47717 499.673 10 499.673H285.312L285.312 774.985Z" fill="url(#paint0_linear_806_394)"/>
<defs>
<linearGradient id="paint0_linear_806_394" x1="392.492" y1="0" x2="392.492" y2="784.985" gradientUnits="userSpaceOnUse">
<stop stop-color="#FFFFFF"/>
<stop offset="1" stop-color="#FFFFFF"/>
</linearGradient>
</defs>
</svg>
